<?xml version="1.0" encoding="iso-8859-1"?>
<!-- Uploaded to: SVG Repo, www.svgrepo.com, Generator: SVG Repo Mixer Tools -->
<svg fill="#000000" height="800px" width="800px" version="1.1" id="Capa_1" xmlns="http://www.w3.org/2000/svg" xmlns:xlink="http://www.w3.org/1999/xlink" 
	 viewBox="0 0 512.001 512.001" xml:space="preserve">
<g>
	<g>
		<path d="M470.342,172.921h-36.863c-16.03-22.743-42.494-37.628-72.372-37.628c-29.925,0-56.424,14.933-72.447,37.737
			c-0.401-0.065-0.808-0.107-1.227-0.107h-39.545c-4.199,0-7.604,3.405-7.604,7.604c0,4.199,3.405,7.604,7.604,7.604h32.237
			c-4.824,10.913-7.51,22.975-7.51,35.654c0,48.794,39.697,88.491,88.491,88.491s88.49-39.697,88.49-88.491
			c0-12.678-2.686-24.74-7.51-35.654h28.254c14.585,0,26.451,12.053,26.451,26.867V310.3c0,14.815-11.865,26.867-26.451,26.867
			h-23.395h-77.053h-242.65H50.189h-8.531c-14.585,0-26.451-12.053-26.451-26.867v-19.487h187.269c4.199,0,7.604-3.405,7.604-7.604
			c0-4.199-3.405-7.604-7.604-7.604H15.208v-9.746h187.269c4.199,0,7.604-3.405,7.604-7.604c0-4.199-3.405-7.604-7.604-7.604H15.208
			v-9.745h187.269c4.199,0,7.604-3.405,7.604-7.604c0-4.199-3.405-7.604-7.604-7.604H15.208v-10.7
			c0-14.815,11.866-26.867,26.451-26.867H178.95c4.199,0,7.604-3.405,7.604-7.604c0-4.199-3.405-7.604-7.604-7.604h-13.667v-7.333
			c0-12.019-9.779-21.798-21.798-21.798H82.273c-12.019,0-21.798,9.779-21.798,21.798v7.333H41.659
			C18.689,172.921,0,191.796,0,214.996v95.303c0,23.2,18.689,42.075,41.659,42.075h0.927v16.729c0,4.199,3.405,7.604,7.604,7.604
			h77.053c4.199,0,7.604-3.405,7.604-7.604v-16.729H362.29v16.729c0,4.199,3.404,7.604,7.604,7.604h77.053
			c4.2,0,7.604-3.405,7.604-7.604v-16.729h15.791c22.97,0,41.659-18.875,41.659-42.075v-95.303
			C512,191.796,493.313,172.921,470.342,172.921z M361.107,297.066c-40.408,0-73.283-32.874-73.283-73.283
			s32.874-73.283,73.283-73.283c40.407,0,73.282,32.874,73.282,73.283C434.389,264.192,401.516,297.066,361.107,297.066z
			 M75.683,165.588c0-3.634,2.956-6.59,6.59-6.59h61.211c3.634,0,6.59,2.956,6.59,6.59v7.333H75.683V165.588z M119.639,361.499
			H57.793v-9.125h61.846V361.499z M439.343,361.499h-61.846v-9.125h61.846V361.499z"/>
	</g>
</g>
<g>
	<g>
		<path d="M361.107,164.995c-32.417,0-58.789,26.373-58.789,58.789s26.373,58.789,58.789,58.789s58.788-26.373,58.788-58.789
			S393.523,164.995,361.107,164.995z M361.107,267.364c-24.031,0-43.581-19.55-43.581-43.581s19.55-43.581,43.581-43.581
			s43.58,19.55,43.58,43.581S385.139,267.364,361.107,267.364z"/>
	</g>
</g>
<g>
	<g>
		<path d="M361.107,186.099c-20.779,0-37.684,16.905-37.684,37.683s16.905,37.683,37.684,37.683
			c20.778,0,37.683-16.905,37.683-37.683S381.886,186.099,361.107,186.099z M361.107,246.259c-12.393,0-22.476-10.083-22.476-22.475
			c0-12.392,10.083-22.475,22.476-22.475s22.475,10.083,22.475,22.475C383.582,236.176,373.5,246.259,361.107,246.259z"/>
	</g>
</g>
</svg>